# xmcd CD database file
#
# Track frame offsets:
#	150
#	23230
#	37778
#	52645
#	63183
#	77835
#	98093
#	126380
#	143408
#	161225
#	188665
#	210178
#	241030
#
# Disc length: 3690 seconds
#
# Revision: 1
# Processed by: cddbd v1.4PL0 Copyright (c) Steve Scherf et al.
# Submitted via: CDex 1.51
#
DISCID=950e680d
DTITLE=Hot Tuna - Live at Sweetwater
DYEAR=1992
DGENRE=Blues
TTITLE0=Whinin' Boy Blues
TTITLE1=Great Change
TTITLE2=Down And Out
TTITLE3=Embryonic Journey
TTITLE4=Trouble In Mind
TTITLE5=Bank Robber
TTITLE6=I See The Light
TTITLE7=I'll Be There For You
TTITLE8=I Belong To The Band
TTITLE9=Maggie's Farm
TTITLE10=Genesis
TTITLE11=Ice Age
TTITLE12=Pass The Snakes
EXTD=YEAR: 1992
EXTT0=
EXTT1=
EXTT2=
EXTT3=
EXTT4=
EXTT5=
EXTT6=
EXTT7=
EXTT8=
EXTT9=
EXTT10=
EXTT11=
EXTT12=
PLAYORDER=
